<?xml version="1.0" encoding="UTF-8"?>
<svg id="_Слой_2" data-name="Слой 2" xmlns="http://www.w3.org/2000/svg" viewBox="0 0 742.1 1060.3">
  <defs>
    <style>
      .cls-1 {
        fill: #3f3f3f;
      }

      .cls-2 {
        fill: #f8f8f8;
      }
    </style>
  </defs>
  <g id="_Слой_2-2" data-name="Слой 2">
    <g>
      <path class="cls-1" d="M389.93,81h81.97v91l-71,189h-10.97v-99.6h-67.71v99.6h-82.32V81h82.32v99.6h67.71v-99.6Z"/>
      <path class="cls-1" d="M526.68,361h-93.78l105-280h99.39l104.6,280h-93.78l-12.02-37.2h-96.99l-12.42,37.2ZM587.6,161.4l-27.25,95.6h54.91l-27.65-95.6Z"/>
      <path class="cls-1" d="M511.98,391h-79.08v280h86.8v-128l44.36,71.2h46.68l44.36-71.6v128.4h86.8v-280h-79.08l-75.23,122.4-75.61-122.4Z"/>
      <path class="cls-1" d="M322.18,391h-82.28v280h90.3v-128l46.16,71.2h24.48v-100.8l-78.66-122.4Z"/>
      <path class="cls-1" d="M561.3,981h-92.4v-280h130c16,0,30.67,1.6,44,4.8s25.87,8.4,37.6,15.6c11.73,7.2,20.93,17.47,27.6,30.8s10,29.2,10,47.6c0,39.73-16,67.6-48,83.6l72,97.6h-101.6l-57.6-82.8h-21.6v82.8ZM561.3,776.2v52.8h35.6c8.8,0,15.73-2.4,20.8-7.2s7.6-11.2,7.6-19.2-2.53-14.4-7.6-19.2c-5.07-4.8-12-7.2-20.8-7.2h-35.6Z"/>
      <path class="cls-1" d="M239.9,701h190.84v72.8h-107.66v32.4h94.7v68h-94.7v33.2h109.82v73.6h-193v-280Z"/>
      <path class="cls-1" d="M54.3,0h363.47c1.11,0,2,.9,2,2v10.04c0,.99-.73,1.83-1.71,1.98L100.72,60.95c-.98.15-1.71.99-1.71,1.98v945.79c0,1.05.8,1.91,1.84,2l317.7,24.95c1.04.08,1.84.95,1.84,2v20.63c0,1.1-.89,2-2,2H2c-1.14,0-2.05-.96-2-2.1L52.3,1.9c.05-1.06.93-1.9,2-1.9Z"/>
      <path class="cls-1" d="M54.3,0h363.47c1.11,0,2,.9,2,2v10.04c0,.99-.73,1.83-1.71,1.98L100.72,60.95c-.98.15-1.71.99-1.71,1.98v945.79c0,1.05.8,1.91,1.84,2l317.7,24.95c1.04.08,1.84.95,1.84,2v20.63c0,1.1-.89,2-2,2H2c-1.14,0-2.05-.96-2-2.1L52.3,1.9c.05-1.06.93-1.9,2-1.9Z"/>
      <path class="cls-1" d="M115.46,608.95c-.03-1.11.84-2.03,1.94-2.06l64.9-1.83c1.1-.03,2.02.84,2.05,1.94l.37,12.66c.03,1.15-.91,2.09-2.06,2.06l-65.01-1.88c-1.06-.03-1.91-.88-1.94-1.94l-.26-8.95Z"/>
      <path class="cls-2" d="M506.2,962.45c-2.58,0-4.86-.45-6.85-1.34-2.02-.9-3.63-2.1-4.83-3.61-1.2-1.54-2.1-3.25-2.69-5.12-.62-1.88-.92-3.85-.92-5.92,0-3.19.63-6.2,1.89-9.03h6.01c-1.51,2.3-2.27,5.03-2.27,8.19,0,2.91.81,5.38,2.44,7.39,1.6,2.02,4,3.02,7.22,3.02,1.85,0,3.44-.31,4.79-.92,1.34-.64,2.37-1.48,3.07-2.52.67-1.04,1.16-2.1,1.47-3.19.31-1.09.46-2.24.46-3.44s-.18-2.28-.55-3.23h-10.5v-6.01h14.57c1.32,3.08,1.97,6.27,1.97,9.58,0,1.68-.18,3.3-.55,4.87-.36,1.54-.94,3.01-1.72,4.41-.81,1.37-1.79,2.56-2.94,3.57-1.18,1.01-2.62,1.82-4.33,2.44-1.74.59-3.65.88-5.75.88ZM520.9,925.06v6.3h-29.4v-12.1c0-1.54.15-2.95.46-4.24.31-1.32.81-2.55,1.51-3.7.7-1.18,1.69-2.09,2.98-2.73,1.29-.67,2.83-1.01,4.62-1.01,4.45,0,7.36,2.14,8.74,6.43l11.09-8.78v7.27l-10.29,7.94v4.62h10.29ZM497.04,925.06h8.32v-6.09c0-1.43-.34-2.6-1.01-3.53-.7-.95-1.75-1.43-3.15-1.43s-2.48.46-3.15,1.39c-.67.92-1.01,2.11-1.01,3.57v6.09ZM511.95,902.79c-1.82.64-3.74.97-5.75.97s-3.93-.32-5.75-.97c-1.82-.67-3.44-1.64-4.87-2.9-1.43-1.29-2.56-2.94-3.4-4.96s-1.26-4.28-1.26-6.8.42-4.79,1.26-6.8,1.97-3.65,3.4-4.91c1.43-1.29,3.05-2.25,4.87-2.9,1.82-.67,3.74-1.01,5.75-1.01s3.93.34,5.75,1.01c1.82.64,3.44,1.61,4.87,2.9,1.43,1.26,2.56,2.9,3.4,4.91s1.26,4.28,1.26,6.8-.42,4.79-1.26,6.8-1.97,3.67-3.4,4.96c-1.43,1.26-3.05,2.23-4.87,2.9ZM512.96,881.37c-1.79-1.6-4.05-2.39-6.76-2.39s-4.97.8-6.76,2.39-2.69,3.85-2.69,6.76.9,5.21,2.69,6.8,4.05,2.39,6.76,2.39,4.97-.8,6.76-2.39c1.79-1.6,2.69-3.86,2.69-6.8s-.9-5.17-2.69-6.76ZM491.5,848.59v-6.26h18.35c1.68,0,3.19.24,4.54.71,1.34.48,2.45,1.12,3.32,1.93.87.81,1.6,1.78,2.18,2.9.59,1.12.99,2.3,1.22,3.53.25,1.2.38,2.48.38,3.82s-.13,2.63-.38,3.86c-.22,1.2-.63,2.37-1.22,3.49-.59,1.12-1.32,2.09-2.18,2.9-.87.81-1.97,1.46-3.32,1.93-1.34.48-2.86.71-4.54.71h-18.35v-6.3h18.02c4.2,0,6.3-2.2,6.3-6.59s-2.1-6.64-6.3-6.64h-18.02ZM491.5,836.33v-11.09c0-8.46,3.29-12.68,9.87-12.68s9.87,4.23,9.87,12.68v4.79h9.66v6.3h-29.4ZM505.69,824.95c0-3.98-1.44-5.96-4.33-5.96s-4.33,1.99-4.33,5.96v5.08h8.65v-5.08Z"/>
    </g>
  </g>
</svg>